<svg width="103" height="56" fill="none" xmlns="http://www.w3.org/2000/svg"><path d="M1.853 51.25c.31 0 .549.089.717.267a.902.902 0 01.253.656c0 .26-.084.476-.253.65-.168.168-.408.252-.717.252-.297 0-.531-.084-.705-.253a.867.867 0 01-.26-.65c0-.264.085-.482.254-.655.168-.178.405-.267.71-.267zm0-5.804c.31 0 .549.09.717.267a.902.902 0 01.253.656c0 .26-.084.476-.253.65-.168.168-.408.253-.717.253-.297 0-.531-.085-.705-.253a.867.867 0 01-.26-.65c0-.264.085-.483.254-.656.168-.178.405-.267.71-.267zM4.73 53v-9.953h2.94c.88 0 1.659.196 2.338.588a4.002 4.002 0 011.586 1.668c.373.72.56 1.545.56 2.474v.5c0 .943-.189 1.772-.567 2.488a3.933 3.933 0 01-1.607 1.654c-.692.387-1.487.581-2.385.581H4.73zm1.73-8.559v7.178h1.128c.907 0 1.602-.282 2.085-.847.488-.57.736-1.386.745-2.448v-.553c0-1.08-.235-1.905-.704-2.475-.47-.57-1.15-.855-2.044-.855H6.46zm10.514 8.696c-1.053 0-1.908-.33-2.564-.992-.652-.665-.977-1.549-.977-2.652v-.205c0-.738.14-1.397.423-1.975a3.272 3.272 0 011.204-1.36 3.172 3.172 0 011.722-.486c1.007 0 1.784.321 2.331.964.552.642.827 1.551.827 2.727v.67h-4.833c.05.61.253 1.094.609 1.45.36.355.811.532 1.353.532.761 0 1.381-.307 1.86-.922l.895.854a3.011 3.011 0 01-1.19 1.032 3.72 3.72 0 01-1.66.363zm-.199-6.337c-.455 0-.824.16-1.107.478-.278.32-.456.764-.533 1.333H18.3v-.123c-.037-.556-.185-.975-.445-1.258-.26-.287-.62-.43-1.08-.43zm6.002-1.197l.048.855c.547-.66 1.265-.991 2.154-.991 1.54 0 2.324.882 2.351 2.645V53H25.67v-4.792c0-.47-.103-.816-.308-1.04-.2-.227-.53-.34-.99-.34-.67 0-1.17.302-1.498.908V53h-1.661v-7.397h1.565zm8.333-1.797v1.797h1.306v1.231H31.11v4.129c0 .282.055.487.164.615.114.123.315.185.602.185.191 0 .385-.023.581-.069v1.285a4.091 4.091 0 01-1.094.158c-1.276 0-1.914-.704-1.914-2.113v-4.19h-1.217v-1.23h1.217v-1.798h1.661zm7 9.194c-.073-.141-.136-.371-.191-.69a2.586 2.586 0 01-1.941.827c-.743 0-1.35-.212-1.819-.636a2.034 2.034 0 01-.704-1.572c0-.789.292-1.393.875-1.812.588-.424 1.427-.636 2.516-.636h1.018v-.485c0-.383-.107-.688-.321-.916-.214-.232-.54-.349-.978-.349-.378 0-.688.096-.93.288a.869.869 0 00-.362.717h-1.66c0-.405.134-.783.403-1.134a2.678 2.678 0 011.093-.834c.465-.2.983-.301 1.552-.301.866 0 1.556.218 2.071.656.515.433.78 1.044.793 1.832v3.336c0 .665.094 1.196.28 1.593V53H38.11zm-1.825-1.196c.328 0 .636-.08.923-.24.292-.16.51-.373.656-.642v-1.395h-.895c-.616 0-1.078.107-1.388.322-.31.214-.465.517-.465.909 0 .319.105.574.315.765.214.187.499.28.854.28zM43.032 53h-1.66V42.5h1.66V53zm6.303-1.75c.31 0 .55.089.718.267a.902.902 0 01.253.656c0 .26-.085.476-.253.65-.169.168-.408.252-.718.252-.296 0-.531-.084-.704-.253a.867.867 0 01-.26-.65c0-.264.084-.482.253-.655.169-.178.406-.267.711-.267zm0-5.804c.31 0 .55.09.718.267a.902.902 0 01.253.656c0 .26-.085.476-.253.65-.169.168-.408.253-.718.253-.296 0-.531-.085-.704-.253a.867.867 0 01-.26-.65c0-.264.084-.483.253-.656.169-.178.406-.267.711-.267zm4.607 3.856V53h-1.73v-9.953h3.808c1.112 0 1.994.29 2.646.868.656.579.984 1.344.984 2.297 0 .975-.32 1.734-.963 2.276-.639.543-1.534.814-2.687.814h-2.058zm0-1.388h2.078c.616 0 1.085-.144 1.409-.43.323-.292.485-.712.485-1.258 0-.538-.164-.967-.492-1.286-.328-.323-.78-.49-1.354-.499h-2.126v3.473zm10.938-.793a4.107 4.107 0 00-.677-.055c-.76 0-1.274.292-1.538.875V53h-1.661v-7.397h1.586l.04.828c.402-.643.958-.964 1.669-.964.237 0 .433.032.588.096l-.007 1.558zM70.144 53c-.073-.141-.137-.371-.192-.69a2.586 2.586 0 01-1.941.827c-.743 0-1.35-.212-1.819-.636a2.034 2.034 0 01-.704-1.572c0-.789.292-1.393.875-1.812.588-.424 1.427-.636 2.516-.636h1.018v-.485c0-.383-.107-.688-.32-.916-.215-.232-.54-.349-.978-.349-.379 0-.689.096-.93.288a.869.869 0 00-.362.717h-1.662c0-.405.135-.783.404-1.134a2.678 2.678 0 011.094-.834c.464-.2.982-.301 1.551-.301.866 0 1.557.218 2.072.656.515.433.779 1.044.793 1.832v3.336c0 .665.093 1.196.28 1.593V53h-1.695zm-1.826-1.196c.329 0 .636-.08.923-.24.292-.16.51-.373.656-.642v-1.395h-.895c-.615 0-1.078.107-1.388.322-.31.214-.465.517-.465.909 0 .319.105.574.315.765.214.187.499.28.854.28zm8.019.006c.415 0 .759-.12 1.032-.362.274-.241.42-.54.438-.895h1.565c-.018.46-.162.89-.43 1.292a2.836 2.836 0 01-1.094.943 3.26 3.26 0 01-1.49.349c-1.035 0-1.855-.335-2.462-1.005-.606-.67-.909-1.595-.909-2.776v-.17c0-1.126.301-2.026.903-2.7.601-.68 1.421-1.02 2.46-1.02.88 0 1.596.258 2.147.773.556.51.848 1.183.875 2.017h-1.565c-.019-.424-.164-.773-.438-1.046-.269-.273-.613-.41-1.032-.41-.538 0-.953.196-1.244.588-.292.387-.44.977-.445 1.77v.267c0 .802.144 1.401.431 1.798.292.392.711.587 1.258.587zm6.371-8.004v1.797h1.306v1.231h-1.306v4.129c0 .282.055.487.164.615.114.123.314.185.602.185.191 0 .385-.023.58-.069v1.285a4.092 4.092 0 01-1.093.158c-1.276 0-1.914-.704-1.914-2.113v-4.19H79.83v-1.23h1.217v-1.798h1.661zM87.056 53h-1.662v-7.397h1.662V53zm-1.764-9.317c0-.256.08-.468.24-.636.163-.169.396-.253.697-.253.3 0 .533.084.697.253.164.169.246.38.246.636 0 .25-.082.46-.246.629-.164.164-.397.246-.698.246-.3 0-.533-.082-.697-.246a.88.88 0 01-.239-.63zm6.617 8.127c.415 0 .759-.12 1.032-.362.274-.241.42-.54.438-.895h1.565c-.018.46-.161.89-.43 1.292a2.836 2.836 0 01-1.094.943 3.26 3.26 0 01-1.49.349c-1.035 0-1.855-.335-2.461-1.005-.606-.67-.91-1.595-.91-2.776v-.17c0-1.126.301-2.026.903-2.7.602-.68 1.422-1.02 2.46-1.02.88 0 1.596.258 2.147.773.556.51.848 1.183.875 2.017H93.38c-.018-.424-.164-.773-.438-1.046-.269-.273-.612-.41-1.032-.41-.538 0-.952.196-1.244.588-.292.387-.44.977-.444 1.77v.267c0 .802.143 1.401.43 1.798.292.392.711.587 1.258.587zm7.547 1.327c-1.053 0-1.907-.33-2.563-.992-.652-.665-.978-1.549-.978-2.652v-.205c0-.738.141-1.397.424-1.975a3.27 3.27 0 011.203-1.36 3.172 3.172 0 011.723-.486c1.007 0 1.784.321 2.331.964.551.642.827 1.551.827 2.727v.67H97.59c.05.61.253 1.094.608 1.45.36.355.811.532 1.354.532.761 0 1.381-.307 1.859-.922l.896.854a3.016 3.016 0 01-1.19 1.032 3.72 3.72 0 01-1.66.363zm-.198-6.337c-.456 0-.825.16-1.108.478-.278.32-.455.764-.533 1.333h3.165v-.123c-.036-.556-.184-.975-.444-1.258-.26-.287-.62-.43-1.08-.43z" fill="#0055B8"/><g filter="url(#filter0_d)"><path d="M23.5 4.764c0 .797-.229 1.412-.686 1.845-.445.434-1.007.65-1.687.65-.668 0-1.225-.216-1.67-.65-.434-.433-.65-1.048-.65-1.845 0-.762.216-1.366.65-1.81.434-.446.99-.669 1.67-.669.68 0 1.242.217 1.688.65.456.434.685 1.044.685 1.829zm14.924 0c0 .797-.229 1.412-.686 1.845-.445.434-1.008.65-1.687.65-.668 0-1.225-.216-1.67-.65-.434-.433-.65-1.048-.65-1.845 0-.762.216-1.366.65-1.81.434-.446.99-.669 1.67-.669.68 0 1.242.217 1.687.65.457.434.686 1.044.686 1.829zM19 12.164h25.594v7.559c0 2.261-.504 4.265-1.512 6.011-1.008 1.758-2.438 3.118-4.289 4.078-1.852.961-3.973 1.442-6.363 1.442h-1.284c-2.425 0-4.558-.486-6.398-1.46-1.84-.96-3.258-2.337-4.254-4.13C19.498 23.883 19 21.838 19 19.53v-7.365zm22.008 4.447H22.55v2.9c0 2.333.726 4.12 2.18 5.362 1.464 1.254 3.562 1.893 6.292 1.916h1.424c2.778 0 4.899-.604 6.363-1.81 1.465-1.207 2.198-2.96 2.198-5.256V16.61z" fill="#FFD600"/></g><g filter="url(#filter1_d)"><path d="M65.5 5.264c0 .797-.228 1.412-.686 1.845-.445.434-1.007.65-1.687.65-.668 0-1.225-.216-1.67-.65-.434-.433-.65-1.048-.65-1.845 0-.762.216-1.366.65-1.81.434-.446.99-.669 1.67-.669.68 0 1.242.217 1.687.65.458.434.686 1.044.686 1.829zm14.924 0c0 .797-.229 1.412-.686 1.845-.445.434-1.007.65-1.687.65-.668 0-1.225-.216-1.67-.65-.434-.433-.65-1.048-.65-1.845 0-.762.216-1.366.65-1.81.433-.446.99-.669 1.67-.669.68 0 1.242.217 1.687.65.457.434.686 1.044.686 1.829zM70.51 17.11H61v-4.447h25.594v9.791c0 2.86-.744 5.127-2.233 6.803-1.488 1.687-3.457 2.531-5.906 2.531-2.508 0-4.459-.826-5.853-2.479-1.395-1.64-2.092-3.943-2.092-6.908v-5.29zm3.568 0v5.344c0 1.582.37 2.79 1.108 3.621.75.832 1.828 1.248 3.234 1.248 1.383 0 2.484-.422 3.305-1.265.832-.844 1.26-2.004 1.283-3.48V17.11h-8.93z" fill="#FFD600"/></g><defs><filter id="filter0_d" x="16.807" y=".285" width="31.787" height="34.969" filterUnits="userSpaceOnUse" color-interpolation-filters="sRGB"><feFlood flood-opacity="0" result="BackgroundImageFix"/><feColorMatrix in="SourceAlpha" values="0 0 0 0 0 0 0 0 0 0 0 0 0 0 0 0 0 0 127 0"/><feOffset dx="1" dy="1"/><feGaussianBlur stdDeviation="1.5"/><feColorMatrix values="0 0 0 0 0.554167 0 0 0 0 0.43225 0 0 0 0 0 0 0 0 0.25 0"/><feBlend in2="BackgroundImageFix" result="effect1_dropShadow"/><feBlend in="SourceGraphic" in2="effect1_dropShadow" result="shape"/></filter><filter id="filter1_d" x="58.807" y=".785" width="31.787" height="35.004" filterUnits="userSpaceOnUse" color-interpolation-filters="sRGB"><feFlood flood-opacity="0" result="BackgroundImageFix"/><feColorMatrix in="SourceAlpha" values="0 0 0 0 0 0 0 0 0 0 0 0 0 0 0 0 0 0 127 0"/><feOffset dx="1" dy="1"/><feGaussianBlur stdDeviation="1.5"/><feColorMatrix values="0 0 0 0 0.554167 0 0 0 0 0.43225 0 0 0 0 0 0 0 0 0.25 0"/><feBlend in2="BackgroundImageFix" result="effect1_dropShadow"/><feBlend in="SourceGraphic" in2="effect1_dropShadow" result="shape"/></filter></defs></svg>