<svg width="133" height="15" fill="none" xmlns="http://www.w3.org/2000/svg"><path d="M.099 12.752c0-.404.134-.732.404-.984.275-.252.618-.378 1.028-.378.416 0 .759.126 1.029.378.275.252.413.58.413.984 0 .398-.135.724-.405.975-.27.247-.615.37-1.037.37-.416 0-.759-.123-1.028-.37-.27-.251-.404-.577-.404-.975zm0-7.198c0-.405.134-.733.404-.985.275-.252.618-.378 1.028-.378.416 0 .759.126 1.029.378.275.252.413.58.413.985 0 .398-.135.723-.405.975-.27.246-.615.37-1.037.37-.416 0-.759-.124-1.028-.37-.27-.252-.404-.577-.404-.975zM5.223 14V1.203H9.16c1.125 0 2.13.255 3.015.765a5.258 5.258 0 012.083 2.162c.498.932.747 1.992.747 3.182V7.9c0 1.19-.246 2.248-.738 3.173a5.228 5.228 0 01-2.066 2.154c-.89.51-1.895.767-3.014.773H5.223zM7.859 3.339v8.543h1.275c1.031 0 1.82-.337 2.364-1.01.545-.675.823-1.639.835-2.893v-.676c0-1.301-.27-2.285-.809-2.953-.539-.674-1.327-1.011-2.364-1.011h-1.3zm53.851 9.413c0-.404.135-.732.404-.984.276-.252.618-.378 1.029-.378.416 0 .758.126 1.028.378.275.252.413.58.413.984 0 .398-.135.724-.404.975-.27.247-.616.37-1.037.37-.416 0-.76-.123-1.029-.37-.27-.251-.404-.577-.404-.975zm0-7.198c0-.405.135-.733.404-.985.276-.252.618-.378 1.029-.378.416 0 .758.126 1.028.378.275.252.413.58.413.985 0 .398-.135.723-.404.975-.27.246-.616.37-1.037.37-.416 0-.76-.124-1.029-.37-.27-.252-.404-.577-.404-.975zm7.76 3.937V14h-2.636V1.203h4.992c.961 0 1.805.176 2.531.527.733.352 1.295.853 1.688 1.503.392.645.589 1.38.589 2.206 0 1.254-.43 2.245-1.292 2.971-.856.72-2.042 1.081-3.56 1.081h-2.311zm0-2.136h2.356c.697 0 1.228-.164 1.591-.492.37-.328.554-.797.554-1.406 0-.627-.185-1.134-.554-1.52-.37-.387-.879-.586-1.53-.598h-2.416v4.016z" fill="#FFD600"/><path d="M21.14 14.176c-1.395 0-2.532-.428-3.41-1.283-.874-.856-1.31-1.995-1.31-3.42v-.245c0-.956.184-1.808.554-2.558.369-.756.89-1.336 1.564-1.74.68-.41 1.453-.616 2.32-.616 1.301 0 2.324.41 3.068 1.23.75.821 1.125 1.984 1.125 3.49v1.037h-6.056c.082.621.328 1.12.738 1.494.416.375.94.563 1.574.563.978 0 1.743-.355 2.294-1.063l1.248 1.397c-.381.539-.897.96-1.547 1.265-.65.3-1.371.449-2.162.449zm-.29-7.805c-.504 0-.915.17-1.23.51-.311.34-.51.826-.599 1.459h3.534v-.202c-.012-.563-.164-.996-.457-1.301-.293-.31-.71-.466-1.248-.466zm7.989-1.88l.079 1.098c.68-.85 1.59-1.275 2.733-1.275 1.008 0 1.758.296 2.25.888.493.592.744 1.477.756 2.654V14h-2.54V7.918c0-.54-.117-.929-.351-1.169-.235-.246-.624-.37-1.17-.37-.714 0-1.25.306-1.608.915V14h-2.54V4.49h2.39zm10.793-2.339V4.49h1.626v1.864h-1.626V11.1c0 .351.067.603.202.755.135.153.393.229.773.229.282 0 .53-.02.748-.061v1.924a5.23 5.23 0 01-1.539.229c-1.78 0-2.689-.9-2.724-2.699V6.354h-1.389V4.49h1.389V2.152h2.54zM48.184 14a2.82 2.82 0 01-.255-.852c-.616.685-1.415 1.028-2.4 1.028-.931 0-1.705-.27-2.32-.809-.61-.539-.914-1.219-.914-2.039 0-1.008.372-1.781 1.116-2.32.75-.54 1.831-.812 3.243-.818h1.17v-.544c0-.44-.115-.792-.343-1.055-.223-.264-.578-.396-1.064-.396-.428 0-.765.103-1.01.308-.241.205-.361.486-.361.844h-2.54c0-.551.17-1.06.51-1.53.34-.468.82-.835 1.441-1.098.621-.27 1.318-.405 2.092-.405 1.172 0 2.1.296 2.786.888.691.586 1.037 1.412 1.037 2.479v4.122c.006.902.132 1.585.378 2.048V14h-2.566zm-2.101-1.767c.375 0 .72-.082 1.037-.246.317-.17.55-.395.703-.677V9.676h-.949c-1.272 0-1.948.44-2.03 1.318l-.009.15c0 .316.111.577.334.782.223.205.527.307.914.307zM55.003 14h-2.548V.5h2.549V14zM83.63 6.872a6.901 6.901 0 00-.914-.07c-.961 0-1.591.325-1.89.975V14h-2.54V4.49h2.4l.07 1.134c.51-.873 1.216-1.31 2.118-1.31.281 0 .545.039.791.115l-.035 2.443zM90.107 14a2.822 2.822 0 01-.254-.852c-.616.685-1.415 1.028-2.4 1.028-.931 0-1.705-.27-2.32-.809-.61-.539-.914-1.219-.914-2.039 0-1.008.372-1.781 1.116-2.32.75-.54 1.831-.812 3.243-.818h1.17v-.544c0-.44-.115-.792-.344-1.055-.222-.264-.577-.396-1.063-.396-.428 0-.765.103-1.01.308-.241.205-.361.486-.361.844h-2.54c0-.551.17-1.06.51-1.53.34-.468.82-.835 1.44-1.098.622-.27 1.32-.405 2.093-.405 1.171 0 2.1.296 2.786.888.691.586 1.037 1.412 1.037 2.479v4.122c.006.902.132 1.585.378 2.048V14h-2.567zm-2.1-1.767c.375 0 .72-.082 1.037-.246.316-.17.55-.395.703-.677V9.676h-.95c-1.27 0-1.947.44-2.03 1.318l-.008.15c0 .316.111.577.334.782.222.205.527.307.914.307zm10.195-.105c.469 0 .85-.129 1.143-.387.293-.258.445-.6.457-1.028h2.382a3.28 3.28 0 01-.528 1.775c-.345.534-.82.95-1.424 1.248-.597.293-1.26.44-1.986.44-1.36 0-2.431-.43-3.217-1.292-.785-.867-1.177-2.063-1.177-3.586V9.13c0-1.465.39-2.634 1.168-3.507.78-.873 1.85-1.31 3.209-1.31 1.189 0 2.141.34 2.856 1.02.721.674 1.087 1.573 1.099 2.698h-2.382c-.012-.492-.164-.89-.457-1.195-.293-.31-.68-.466-1.16-.466-.592 0-1.04.217-1.345.65-.299.428-.448 1.125-.448 2.092v.264c0 .978.149 1.682.448 2.11.299.427.753.64 1.362.64zm8.473-9.976V4.49h1.626v1.864h-1.626V11.1c0 .351.067.603.202.755.135.153.393.229.773.229.282 0 .531-.02.747-.061v1.924a5.226 5.226 0 01-1.538.229c-1.781 0-2.689-.9-2.724-2.699V6.354h-1.389V4.49h1.389V2.152h2.54zM112.396 14h-2.548V4.49h2.548V14zm-2.698-11.97c0-.382.126-.695.378-.941.258-.246.607-.37 1.046-.37.434 0 .779.124 1.037.37.258.246.387.56.387.94 0 .387-.132.703-.396.95-.257.246-.6.369-1.028.369-.428 0-.773-.123-1.037-.37-.258-.246-.387-.562-.387-.949zm8.754 10.098c.469 0 .85-.129 1.143-.387.293-.258.445-.6.457-1.028h2.382a3.28 3.28 0 01-.528 1.775c-.345.534-.82.95-1.424 1.248a4.446 4.446 0 01-1.986.44c-1.359 0-2.432-.43-3.217-1.292-.785-.867-1.177-2.063-1.177-3.586V9.13c0-1.465.389-2.634 1.169-3.507.779-.873 1.848-1.31 3.208-1.31 1.189 0 2.141.34 2.856 1.02.721.674 1.087 1.573 1.099 2.698h-2.382c-.012-.492-.164-.89-.457-1.195-.293-.31-.68-.466-1.16-.466-.592 0-1.04.217-1.345.65-.299.428-.448 1.125-.448 2.092v.264c0 .978.149 1.682.448 2.11.299.427.753.64 1.362.64zm9.809 2.048c-1.395 0-2.532-.428-3.41-1.283-.873-.856-1.31-1.995-1.31-3.42v-.245c0-.956.185-1.808.554-2.558.369-.756.89-1.336 1.564-1.74.68-.41 1.453-.616 2.32-.616 1.301 0 2.324.41 3.068 1.23.75.821 1.125 1.984 1.125 3.49v1.037h-6.056c.082.621.328 1.12.738 1.494.417.375.941.563 1.574.563.978 0 1.743-.355 2.294-1.063l1.248 1.397c-.381.539-.897.96-1.547 1.265-.651.3-1.371.449-2.162.449zm-.29-7.805c-.504 0-.914.17-1.231.51-.31.34-.51.826-.597 1.459h3.533v-.202c-.012-.563-.164-.996-.457-1.301-.293-.31-.709-.466-1.248-.466z" fill="#fff"/></svg>